<?xml version="1.0" encoding="UTF-8"?>
<svg id="Calque_1" data-name="Calque 1" xmlns="http://www.w3.org/2000/svg" viewBox="0 0 592.72 987.81">
  <defs>
    <style>
      .cls-1 {
        fill: #fff;
      }
    </style>
  </defs>
  <path class="cls-1" d="M.99,.42C3.66,15.87,9.85,30.56,18.26,43.75c8.4,13.22,18.87,25.03,30.22,35.81,11.37,10.79,23.66,20.59,36.3,29.88,12.66,9.29,25.69,18.06,38.77,26.8,13.07,8.75,26.22,17.42,38.92,26.82,3.17,2.35,6.32,4.75,9.4,7.24,3.1,2.48,6.08,5.08,9.1,7.54,6.05,4.97,12.24,9.79,18.5,14.51,12.53,9.45,25.34,18.54,38.16,27.66,12.81,9.13,25.66,18.24,38.16,27.92,6.24,4.85,12.39,9.85,18.3,15.19,5.88,5.36,11.6,11,16.45,17.6,2.39,3.32,4.59,6.89,6.06,10.96,.73,2.03,1.26,4.2,1.42,6.46,.18,2.25-.05,4.6-.71,6.82-.66,2.22-1.75,4.29-3.09,6.08-1.33,1.81-2.9,3.35-4.54,4.73-3.32,2.73-6.97,4.76-10.68,6.49-3.71,1.71-7.55,3.11-11.34,4.32-3.72,1.23-7.46,2.43-11.17,3.7-7.44,2.49-14.83,5.1-22.19,7.78-14.71,5.39-29.28,11.16-43.54,17.58-14.25,6.41-28.23,13.42-41.55,21.45-13.29,8.04-25.99,17.08-37.07,27.74-11.06,10.63-20.4,23.02-26.4,36.95-6.07,13.9-8.58,29.16-8.52,44.45,.06,15.33,2.48,30.68,5.89,45.85,3.32,15.26,7.37,30.35,12.01,45.24,9.31,29.78,21.22,58.72,35.67,86.33,14.35,27.66,31.31,53.94,50.35,78.6,19.01,24.68,40.12,47.76,62.93,69.04,22.75,21.35,47.23,40.87,72.9,58.7,25.64,17.89,52.56,33.95,80.3,48.48,27.76,14.49,56.37,27.43,85.63,38.78,14.6,5.74,29.39,11.04,44.3,15.95,7.46,2.47,14.95,4.81,22.48,7.07,7.51,2.3,15.08,4.44,22.65,6.54,.27,.07,.42,.35,.35,.61-.07,.26-.33,.41-.59,.36-61.39-14.01-121.36-34.99-178.01-63.05-28.36-13.95-55.79-29.84-82.09-47.47-26.27-17.68-51.31-37.24-74.72-58.65-11.67-10.74-22.93-21.95-33.69-33.61-10.76-11.67-20.99-23.84-30.69-36.41-19.35-25.19-36.42-52.14-50.9-80.41-14.42-28.3-26.19-57.91-35.35-88.28-4.58-15.18-8.55-30.55-11.78-46.06-3.34-15.52-5.72-31.47-5.64-47.64,.06-8.07,.71-16.19,2.28-24.19,1.52-7.99,3.96-15.84,7.25-23.31,1.63-3.74,3.53-7.35,5.57-10.87,2.04-3.52,4.3-6.91,6.71-10.17,2.39-3.28,4.97-6.41,7.67-9.41,2.68-3.03,5.52-5.89,8.43-8.67,11.7-11.08,24.89-20.27,38.55-28.39,13.7-8.11,27.95-15.11,42.43-21.48,14.49-6.38,29.23-12.08,44.1-17.39,7.44-2.64,14.9-5.21,22.4-7.65,3.74-1.25,7.5-2.43,11.26-3.63,3.71-1.16,7.28-2.43,10.73-3.99,3.42-1.56,6.71-3.38,9.49-5.64,2.76-2.25,4.98-4.98,5.91-8.08,.97-3.09,.64-6.53-.54-9.87-1.17-3.35-3.09-6.58-5.27-9.65-4.42-6.13-9.9-11.66-15.6-16.92-5.72-5.26-11.75-10.23-17.88-15.09-12.28-9.71-25-18.94-37.71-28.2-12.72-9.25-25.47-18.5-37.96-28.13-6.24-4.81-12.42-9.73-18.47-14.8-3.05-2.54-5.97-5.15-8.99-7.61-3.02-2.48-6.1-4.89-9.22-7.25-12.49-9.45-25.53-18.24-38.51-27.13-12.99-8.88-25.97-17.81-38.58-27.27-12.6-9.46-24.86-19.45-36.2-30.44-11.32-10.98-21.77-23.01-30.11-36.45C8.64,31.14,2.53,16.21,0,.58-.04,.31,.15,.05,.42,0c.27-.04,.53,.14,.57,.41Z"/>
</svg>