<?xml version="1.0" encoding="utf-8"?>
<!-- Generator: Adobe Illustrator 26.0.1, SVG Export Plug-In . SVG Version: 6.00 Build 0)  -->
<svg version="1.1" id="Calque_1" xmlns="http://www.w3.org/2000/svg" xmlns:xlink="http://www.w3.org/1999/xlink" x="0px" y="0px"
	 viewBox="0 0 200 200" style="enable-background:new 0 0 200 200;" xml:space="preserve">
<path d="M172.11,55.93c-2.39,7.36-6.21,13.88-11.44,19.56c-5.23,5.68-12.02,10.25-20.36,13.7c-8.34,3.46-18.45,5.19-30.34,5.19
	h-9.35c-0.69,0.02-1.39,0.03-2.09,0.03H66.07v-0.03H24.29v0.03v32.46V195h41.78v-68.12h43.91c11.88,0,22-1.73,30.34-5.19
	c8.34-3.46,15.12-8.02,20.36-13.7c5.23-5.68,9.05-12.2,11.44-19.56c2.39-7.36,3.59-14.86,3.59-22.49c0-5.58-0.62-11.02-1.84-16.33
	C173.38,51.73,172.8,53.84,172.11,55.93z"/>
<path d="M66.07,37.46h32.47c4.79,0,9.4,0.36,13.84,1.06c4.43,0.71,8.34,2.09,11.71,4.12c2.87,1.74,5.25,4.08,7.16,7.04
	c0.33-0.52,0.66-1.05,0.96-1.61c2.04-3.73,3.06-8.6,3.06-14.64c0-6.03-1.02-10.91-3.06-14.64c-2.04-3.73-4.75-6.61-8.12-8.65
	c-3.37-2.04-7.28-3.41-11.71-4.12c-3.79-0.6-7.71-0.95-11.76-1.04H66.07H24.29v56.92h41.78V37.46z"/>
</svg>
