<?xml version="1.0" encoding="utf-8"?>
<!-- Generator: Adobe Illustrator 27.0.1, SVG Export Plug-In . SVG Version: 6.00 Build 0)  -->
<svg version="1.1" id="Calque_1" xmlns="http://www.w3.org/2000/svg" xmlns:xlink="http://www.w3.org/1999/xlink" x="0px" y="0px"
	 viewBox="0 0 61.4 65.7" style="enable-background:new 0 0 61.4 65.7;" xml:space="preserve">
<style type="text/css">
	.st0{fill:none;}
	.st1{fill:#2197D4;}
	.st2{fill:url(#SVGID_1_);}
	.st3{fill:url(#SVGID_00000097483329069739947170000007784097413789672078_);}
	.st4{fill:url(#SVGID_00000074418487887196795210000017768070001284798110_);}
	.st5{fill:url(#SVGID_00000029015731600569006570000000146302105620966535_);}
	.st6{fill:url(#SVGID_00000079468193173329290480000014300188784700977043_);}
	.st7{fill:url(#SVGID_00000067210688361663728640000005456836155151680901_);}
</style>
<pattern  y="65.7" width="43.5" height="43.5" patternUnits="userSpaceOnUse" id="Nouvelle_nuance_de_motif_17" viewBox="0 -43.5 43.5 43.5" style="overflow:visible;">
	<g>
		<rect y="-43.5" class="st0" width="43.5" height="43.5"/>
		<g>
			<rect y="-43.5" class="st0" width="43.5" height="43.5"/>
			<rect y="-43.5" class="st1" width="43.5" height="43.5"/>
		</g>
	</g>
</pattern>
<g>
	<pattern  id="SVGID_1_" xlink:href="#Nouvelle_nuance_de_motif_17" patternTransform="matrix(1 0 0 -1 -35.54 -16266.3799)">
	</pattern>
	<polygon class="st2" points="12.7,9.9 7.8,9.2 9,0 16.4,5.7 13.3,9.7 12.8,9.3 	"/>
</g>
<g>
	
		<pattern  id="SVGID_00000011738825718251577090000010913728515091414716_" xlink:href="#Nouvelle_nuance_de_motif_17" patternTransform="matrix(1 0 0 -1 -35.54 -16266.3799)">
	</pattern>
	<path style="fill:url(#SVGID_00000011738825718251577090000010913728515091414716_);" d="M7.5,47.7l-5-0.7l1.3-9.5l5,0.7L7.5,47.7z
		 M10.1,28.8l-5-0.7l1.3-9.5l4.9,0.7L10.1,28.8z"/>
</g>
<g>
	
		<pattern  id="SVGID_00000140004318601765382290000006132273513350915476_" xlink:href="#Nouvelle_nuance_de_motif_17" patternTransform="matrix(1 0 0 -1 -35.54 -16266.3799)">
	</pattern>
	<polygon style="fill:url(#SVGID_00000140004318601765382290000006132273513350915476_);" points="0,65.7 1.3,56.5 6.2,57.1 
		6.1,57.8 6.8,57.5 8.6,62.2 	"/>
</g>
<g>
	
		<pattern  id="SVGID_00000152237480382653285430000007498017557341336214_" xlink:href="#Nouvelle_nuance_de_motif_17" patternTransform="matrix(1 0 0 -1 -35.54 -16266.3799)">
	</pattern>
	<path style="fill:url(#SVGID_00000152237480382653285430000007498017557341336214_);" d="M17.4,58.6L15.5,54l8.9-3.6l1.9,4.6
		L17.4,58.6z M35.1,51.4l-1.9-4.6l0,0l8.9-3.6l1.9,4.6l0,0L35.1,51.4z"/>
</g>
<g>
	
		<pattern  id="SVGID_00000103232928505987238060000008065931762017954488_" xlink:href="#Nouvelle_nuance_de_motif_17" patternTransform="matrix(1 0 0 -1 -35.54 -16266.3799)">
	</pattern>
	<polygon style="fill:url(#SVGID_00000103232928505987238060000008065931762017954488_);" points="52.8,44.2 50.9,39.6 51.5,39.3 
		51,38.9 54,34.9 61.4,40.7 	"/>
</g>
<g>
	
		<pattern  id="SVGID_00000006676096152359050240000013251832009924695193_" xlink:href="#Nouvelle_nuance_de_motif_17" patternTransform="matrix(1 0 0 -1 -35.54 -16266.3799)">
	</pattern>
	<path style="fill:url(#SVGID_00000006676096152359050240000013251832009924695193_);" d="M43.5,33.1L43.5,33.1l-7.6-5.9l3.1-4l0,0
		l7.6,5.9L43.5,33.1z M28.4,21.4l-7.6-5.9l3.1-4l7.6,5.9L28.4,21.4z"/>
</g>
</svg>
