<?xml version="1.0" encoding="UTF-8"?>
<svg id="Calque_1" data-name="Calque 1" xmlns="http://www.w3.org/2000/svg" xmlns:xlink="http://www.w3.org/1999/xlink" viewBox="0 0 81.85 81.85">
  <defs>
    <style>
      .cls-1 {
        fill: url(#Nouvelle_nuance_de_motif_17);
      }

      .cls-2 {
        fill: none;
      }

      .cls-3 {
        fill: #2197d4;
      }
    </style>
    <pattern id="Nouvelle_nuance_de_motif_17" data-name="Nouvelle nuance de motif 17" x="0" y="0" width="43.46" height="43.46" patternTransform="translate(-58.91 -58.74)" patternUnits="userSpaceOnUse" viewBox="0 0 43.46 43.46">
      <g>
        <rect class="cls-2" y="0" width="43.46" height="43.46"/>
        <rect class="cls-3" x="0" y="0" width="43.46" height="43.46"/>
      </g>
    </pattern>
  </defs>
  <path class="cls-1" d="M40.93,81.85c-3.43,0-6.84-.42-10.13-1.26l1.23-4.85c2.89,.74,5.88,1.11,8.9,1.11h.37s.04,5,.04,5h-.4Zm10.92-1.47l-1.33-4.82c3-.83,5.89-2.05,8.58-3.63l2.53,4.31c-3.07,1.8-6.36,3.2-9.78,4.14Zm-30.92-3.73c-3.09-1.74-5.96-3.87-8.51-6.35l3.48-3.59c2.24,2.18,4.76,4.05,7.47,5.58l-2.45,4.36Zm49.08-6.92l-3.55-3.52c2.2-2.22,4.1-4.72,5.65-7.42l4.34,2.49c-1.77,3.08-3.93,5.92-6.43,8.45ZM5.82,61.98c-1.83-3.05-3.26-6.33-4.24-9.74l4.81-1.38c.86,2.99,2.11,5.87,3.72,8.54l-4.29,2.58Zm74.66-10.53l-4.83-1.28c.8-3,1.2-6.11,1.2-9.24,0-.48,0-.96-.03-1.44l5-.2c.02,.54,.03,1.09,.03,1.63,0,3.57-.46,7.12-1.37,10.53ZM0,41.74c0-.27,0-.54,0-.81,0-3.29,.39-6.57,1.17-9.74l4.86,1.19c-.68,2.78-1.02,5.66-1.02,8.55,0,.24,0,.48,0,.72L0,41.74Zm75.25-11.44c-.92-2.97-2.23-5.82-3.89-8.47l4.23-2.66c1.9,3.01,3.39,6.26,4.43,9.65l-4.78,1.48ZM9.4,23.69l-4.38-2.4c1.7-3.11,3.81-6,6.26-8.57l3.62,3.45c-2.15,2.26-4,4.8-5.5,7.53Zm56.03-9.04c-2.29-2.13-4.84-3.96-7.58-5.43l2.36-4.41c3.13,1.67,6.03,3.75,8.63,6.18l-3.41,3.66ZM22.14,10.3l-2.62-4.26c3.03-1.86,6.29-3.32,9.7-4.34l1.43,4.79c-2.98,.89-5.84,2.17-8.5,3.8Zm26.98-4.36c-3.02-.7-6.15-1.02-9.28-.92L39.7,.02c3.54-.1,7.12,.25,10.56,1.05l-1.14,4.87Z"/>
</svg>