<?xml version="1.0" encoding="utf-8"?>
<!-- Generator: Adobe Illustrator 27.0.1, SVG Export Plug-In . SVG Version: 6.00 Build 0)  -->
<svg version="1.1" id="Calque_1" xmlns="http://www.w3.org/2000/svg" xmlns:xlink="http://www.w3.org/1999/xlink" x="0px" y="0px"
	 viewBox="0 0 100.7 98.1" style="enable-background:new 0 0 100.7 98.1;" xml:space="preserve">
<style type="text/css">
	.st0{fill:#EB008B;}
</style>
<g>
	<path class="st0" d="M52.3,95.4l-2.6-4.2l8.5-5.3l2.6,4.2L52.3,95.4z M41.4,93l-7.6-6.5l3.2-3.8l7.6,6.5L41.4,93z M69.3,84.8
		l-2.6-4.2l8.5-5.3l2.6,4.2L69.3,84.8z M26.1,80.1l-7.6-6.5l3.2-3.8l7.6,6.5L26.1,80.1z M86.3,74.3l-2.6-4.2l8.5-5.3l2.6,4.2
		L86.3,74.3z M10.8,67.2l-7.6-6.5L6.4,57l7.6,6.5L10.8,67.2z M94.2,60.1l-2.4-9.7l4.9-1.2l2.4,9.7L94.2,60.1z M8.1,51.2l-4.6-1.9
		l3.8-9.3l4.6,1.9L8.1,51.2z M89.4,40.6L87,30.9l4.9-1.2l2.4,9.7L89.4,40.6z M15.6,32.7L11,30.8l3.8-9.3l4.6,1.9L15.6,32.7z
		 M84.6,21.2l-2.4-9.7l4.9-1.2l2.4,9.7L84.6,21.2z M23.2,14.2l-4.6-1.9L22.3,3L27,4.9L23.2,14.2z M83.6,9.6l-10-0.7l0.4-5l10,0.7
		L83.6,9.6z M63.6,8.2l-10-0.7l0.4-5l10,0.7L63.6,8.2z M43.7,6.7L33.7,6l0.4-5l10,0.7L43.7,6.7z"/>
</g>
</svg>
