<?xml version="1.0" encoding="utf-8"?>
<!-- Generator: Adobe Illustrator 27.0.1, SVG Export Plug-In . SVG Version: 6.00 Build 0)  -->
<svg version="1.1" id="Calque_1" xmlns="http://www.w3.org/2000/svg" xmlns:xlink="http://www.w3.org/1999/xlink" x="0px" y="0px"
	 viewBox="0 0 86.4 94.9" style="enable-background:new 0 0 86.4 94.9;" xml:space="preserve">
<style type="text/css">
	.st0{fill:#EB008B;}
</style>
<g>
	<polygon class="st0" points="73.8,9.7 73.8,9.1 73.2,9.4 70.4,5.4 78,0 78.8,9.3 	"/>
</g>
<g>
	<path class="st0" d="M19.4,47.2l-2.9-4.1l9-6.3l2.9,4.1L19.4,47.2z M37.3,34.6l-2.9-4.1l9-6.3l2.9,4.1L37.3,34.6z M55.3,22
		l-2.9-4.1l9-6.3l2.9,4.1L55.3,22z"/>
</g>
<g>
	<polygon class="st0" points="8.5,58.6 0,54.7 7.6,49.3 10.5,53.4 10,53.8 10.6,54.1 	"/>
</g>
<g>
	<path class="st0" d="M68,86.3l-10-4.6l2.1-4.5l10,4.7L68,86.3z M48.2,77.1l-10-4.7l2.1-4.5l0,0l10,4.6L48.2,77.1z M28.3,67.9
		L28.3,67.9l-10-4.7l2.1-4.5l0,0l10,4.6L28.3,67.9z"/>
</g>
<g>
	<polygon class="st0" points="86.4,94.9 77.9,91 80,86.4 80.6,86.7 80.6,86 85.5,85.6 	"/>
</g>
<g>
	<path class="st0" d="M79.6,75.2L79.6,75.2l-1-11l5-0.4l0,0l1,11h-0.1L79.6,75.2z M77.7,53.4L77.7,53.4l-1-11l5-0.4l0,0l1,10.9l0,0
		L77.7,53.4z M75.8,31.6L75.8,31.6l-1-11l5-0.4v0.1l1,10.9L75.8,31.6z"/>
</g>
</svg>
